<mxfile host="app.diagrams.net" agent="Mozilla/5.0 (Windows NT 10.0; Win64; x64) AppleWebKit/537.36 (KHTML, like Gecko) Chrome/129.0.0.0 Safari/537.36" version="24.7.17">
  <diagram name="Page-1" id="R2jvsSVvheRiXIXjlcUZ">
    <mxGraphModel dx="1891" dy="538" grid="1" gridSize="10" guides="1" tooltips="1" connect="1" arrows="1" fold="1" page="1" pageScale="1" pageWidth="827" pageHeight="1169" math="0" shadow="0">
      <root>
        <mxCell id="0" />
        <mxCell id="1" parent="0" />
        <mxCell id="gfm0-RPMx8z-YOoSIL-z-17" style="edgeStyle=orthogonalEdgeStyle;rounded=0;orthogonalLoop=1;jettySize=auto;html=1;exitX=0.5;exitY=1;exitDx=0;exitDy=0;entryX=0.5;entryY=0;entryDx=0;entryDy=0;" edge="1" parent="1" source="gfm0-RPMx8z-YOoSIL-z-1" target="gfm0-RPMx8z-YOoSIL-z-2">
          <mxGeometry relative="1" as="geometry" />
        </mxCell>
        <mxCell id="gfm0-RPMx8z-YOoSIL-z-1" value="drm_kms_helper_poll_init" style="text;whiteSpace=wrap;html=1;" vertex="1" parent="1">
          <mxGeometry x="430" y="40" width="150" height="30" as="geometry" />
        </mxCell>
        <mxCell id="gfm0-RPMx8z-YOoSIL-z-5" style="edgeStyle=orthogonalEdgeStyle;rounded=0;orthogonalLoop=1;jettySize=auto;html=1;exitX=0.5;exitY=1;exitDx=0;exitDy=0;entryX=0.5;entryY=0;entryDx=0;entryDy=0;" edge="1" parent="1" source="gfm0-RPMx8z-YOoSIL-z-2" target="gfm0-RPMx8z-YOoSIL-z-3">
          <mxGeometry relative="1" as="geometry" />
        </mxCell>
        <mxCell id="gfm0-RPMx8z-YOoSIL-z-7" style="edgeStyle=orthogonalEdgeStyle;rounded=0;orthogonalLoop=1;jettySize=auto;html=1;exitX=0.5;exitY=1;exitDx=0;exitDy=0;entryX=0.5;entryY=0;entryDx=0;entryDy=0;" edge="1" parent="1" source="gfm0-RPMx8z-YOoSIL-z-2" target="gfm0-RPMx8z-YOoSIL-z-6">
          <mxGeometry relative="1" as="geometry" />
        </mxCell>
        <mxCell id="gfm0-RPMx8z-YOoSIL-z-2" value="drm_kms_helper_poll_enable" style="text;whiteSpace=wrap;html=1;" vertex="1" parent="1">
          <mxGeometry x="420" y="110" width="170" height="30" as="geometry" />
        </mxCell>
        <mxCell id="gfm0-RPMx8z-YOoSIL-z-26" style="edgeStyle=orthogonalEdgeStyle;rounded=0;orthogonalLoop=1;jettySize=auto;html=1;exitX=0.5;exitY=1;exitDx=0;exitDy=0;entryX=0.5;entryY=0;entryDx=0;entryDy=0;" edge="1" parent="1" source="gfm0-RPMx8z-YOoSIL-z-3" target="gfm0-RPMx8z-YOoSIL-z-24">
          <mxGeometry relative="1" as="geometry" />
        </mxCell>
        <mxCell id="gfm0-RPMx8z-YOoSIL-z-27" style="edgeStyle=orthogonalEdgeStyle;rounded=0;orthogonalLoop=1;jettySize=auto;html=1;exitX=0.5;exitY=1;exitDx=0;exitDy=0;entryX=0.5;entryY=0;entryDx=0;entryDy=0;" edge="1" parent="1" source="gfm0-RPMx8z-YOoSIL-z-3" target="gfm0-RPMx8z-YOoSIL-z-25">
          <mxGeometry relative="1" as="geometry" />
        </mxCell>
        <mxCell id="gfm0-RPMx8z-YOoSIL-z-3" value="output_poll_execute" style="text;whiteSpace=wrap;html=1;" vertex="1" parent="1">
          <mxGeometry x="80" y="180" width="120" height="30" as="geometry" />
        </mxCell>
        <mxCell id="gfm0-RPMx8z-YOoSIL-z-4" value="&lt;font style=&quot;font-size: 10px;&quot;&gt;workqueue fn&lt;/font&gt;" style="text;html=1;align=center;verticalAlign=middle;whiteSpace=wrap;rounded=0;fontSize=10;fontColor=#999999;" vertex="1" parent="1">
          <mxGeometry x="150" y="160" width="80" height="30" as="geometry" />
        </mxCell>
        <mxCell id="gfm0-RPMx8z-YOoSIL-z-9" style="edgeStyle=orthogonalEdgeStyle;rounded=0;orthogonalLoop=1;jettySize=auto;html=1;exitX=0.5;exitY=1;exitDx=0;exitDy=0;entryX=0.5;entryY=0;entryDx=0;entryDy=0;" edge="1" parent="1" source="gfm0-RPMx8z-YOoSIL-z-6" target="gfm0-RPMx8z-YOoSIL-z-8">
          <mxGeometry relative="1" as="geometry" />
        </mxCell>
        <mxCell id="gfm0-RPMx8z-YOoSIL-z-13" style="edgeStyle=orthogonalEdgeStyle;rounded=0;orthogonalLoop=1;jettySize=auto;html=1;exitX=0.5;exitY=1;exitDx=0;exitDy=0;entryX=0.5;entryY=0;entryDx=0;entryDy=0;" edge="1" parent="1" source="gfm0-RPMx8z-YOoSIL-z-6" target="gfm0-RPMx8z-YOoSIL-z-12">
          <mxGeometry relative="1" as="geometry" />
        </mxCell>
        <mxCell id="gfm0-RPMx8z-YOoSIL-z-6" value="drm_kms_helper_poll_enable" style="text;whiteSpace=wrap;html=1;" vertex="1" parent="1">
          <mxGeometry x="510" y="180" width="170" height="30" as="geometry" />
        </mxCell>
        <mxCell id="gfm0-RPMx8z-YOoSIL-z-11" style="edgeStyle=orthogonalEdgeStyle;rounded=0;orthogonalLoop=1;jettySize=auto;html=1;exitX=0.5;exitY=1;exitDx=0;exitDy=0;entryX=0.5;entryY=0;entryDx=0;entryDy=0;" edge="1" parent="1" source="gfm0-RPMx8z-YOoSIL-z-8" target="gfm0-RPMx8z-YOoSIL-z-10">
          <mxGeometry relative="1" as="geometry" />
        </mxCell>
        <mxCell id="gfm0-RPMx8z-YOoSIL-z-8" value="drm_kms_helper_enable_hpd" style="text;whiteSpace=wrap;html=1;" vertex="1" parent="1">
          <mxGeometry x="380" y="250" width="170" height="30" as="geometry" />
        </mxCell>
        <mxCell id="gfm0-RPMx8z-YOoSIL-z-10" value="&lt;font color=&quot;#ff0000&quot;&gt;connector_helper_funcs-&amp;gt;enable_hpd&lt;/font&gt;" style="text;whiteSpace=wrap;html=1;" vertex="1" parent="1">
          <mxGeometry x="360" y="300" width="210" height="30" as="geometry" />
        </mxCell>
        <mxCell id="gfm0-RPMx8z-YOoSIL-z-15" style="edgeStyle=orthogonalEdgeStyle;rounded=0;orthogonalLoop=1;jettySize=auto;html=1;exitX=0.5;exitY=1;exitDx=0;exitDy=0;entryX=0.5;entryY=0;entryDx=0;entryDy=0;" edge="1" parent="1" source="gfm0-RPMx8z-YOoSIL-z-12" target="gfm0-RPMx8z-YOoSIL-z-14">
          <mxGeometry relative="1" as="geometry" />
        </mxCell>
        <mxCell id="gfm0-RPMx8z-YOoSIL-z-12" value="reschedule_output_poll_work" style="text;whiteSpace=wrap;html=1;" vertex="1" parent="1">
          <mxGeometry x="610" y="250" width="170" height="30" as="geometry" />
        </mxCell>
        <mxCell id="gfm0-RPMx8z-YOoSIL-z-16" style="edgeStyle=orthogonalEdgeStyle;rounded=0;orthogonalLoop=1;jettySize=auto;html=1;entryX=0;entryY=0.5;entryDx=0;entryDy=0;" edge="1" parent="1" target="gfm0-RPMx8z-YOoSIL-z-3">
          <mxGeometry relative="1" as="geometry">
            <mxPoint x="695" y="360" as="sourcePoint" />
            <Array as="points">
              <mxPoint x="695" y="380" />
              <mxPoint x="810" y="380" />
              <mxPoint x="810" y="30" />
              <mxPoint x="40" y="30" />
              <mxPoint x="40" y="195" />
            </Array>
          </mxGeometry>
        </mxCell>
        <mxCell id="gfm0-RPMx8z-YOoSIL-z-14" value="schedule_delayed_work&lt;div&gt;(&amp;amp;dev-&amp;gt;mode_config.output_poll_work)&lt;/div&gt;" style="text;whiteSpace=wrap;html=1;align=center;" vertex="1" parent="1">
          <mxGeometry x="586.25" y="320" width="217.5" height="30" as="geometry" />
        </mxCell>
        <mxCell id="gfm0-RPMx8z-YOoSIL-z-18" value="&lt;font style=&quot;font-size: 10px;&quot;&gt;INIT_DELAYED_WORK&lt;/font&gt;&lt;div&gt;&lt;font style=&quot;font-size: 10px;&quot;&gt;(&amp;amp;dev-&amp;gt;mode_config.output_poll_work&lt;/font&gt;&lt;/div&gt;" style="text;whiteSpace=wrap;html=1;align=center;" vertex="1" parent="1">
          <mxGeometry x="510" y="60" width="175" height="40" as="geometry" />
        </mxCell>
        <mxCell id="gfm0-RPMx8z-YOoSIL-z-19" value="mode_config.poll_enabled = true" style="text;whiteSpace=wrap;html=1;fontColor=#0000FF;fontSize=11;" vertex="1" parent="1">
          <mxGeometry x="328" y="70" width="171" height="20" as="geometry" />
        </mxCell>
        <mxCell id="gfm0-RPMx8z-YOoSIL-z-22" value="&lt;font color=&quot;#0000ff&quot; style=&quot;font-size: 11px;&quot;&gt;mode_config.poll_running = true&lt;/font&gt;" style="text;whiteSpace=wrap;html=1;fontSize=11;" vertex="1" parent="1">
          <mxGeometry x="623.75" width="180" height="30" as="geometry" />
        </mxCell>
        <mxCell id="gfm0-RPMx8z-YOoSIL-z-33" style="edgeStyle=orthogonalEdgeStyle;rounded=0;orthogonalLoop=1;jettySize=auto;html=1;exitX=0.5;exitY=1;exitDx=0;exitDy=0;entryX=0.5;entryY=0;entryDx=0;entryDy=0;" edge="1" parent="1" source="gfm0-RPMx8z-YOoSIL-z-24" target="gfm0-RPMx8z-YOoSIL-z-32">
          <mxGeometry relative="1" as="geometry" />
        </mxCell>
        <mxCell id="gfm0-RPMx8z-YOoSIL-z-24" value="drm_kms_helper_hotplug_event" style="text;whiteSpace=wrap;html=1;" vertex="1" parent="1">
          <mxGeometry x="-50" y="250" width="180" height="30" as="geometry" />
        </mxCell>
        <mxCell id="gfm0-RPMx8z-YOoSIL-z-28" style="edgeStyle=orthogonalEdgeStyle;rounded=0;orthogonalLoop=1;jettySize=auto;html=1;exitX=0.5;exitY=1;exitDx=0;exitDy=0;entryX=1;entryY=0.5;entryDx=0;entryDy=0;" edge="1" parent="1" source="gfm0-RPMx8z-YOoSIL-z-25" target="gfm0-RPMx8z-YOoSIL-z-3">
          <mxGeometry relative="1" as="geometry">
            <Array as="points">
              <mxPoint x="235" y="310" />
              <mxPoint x="320" y="310" />
              <mxPoint x="320" y="195" />
            </Array>
          </mxGeometry>
        </mxCell>
        <mxCell id="gfm0-RPMx8z-YOoSIL-z-29" value="polling循环" style="edgeLabel;html=1;align=center;verticalAlign=middle;resizable=0;points=[];" vertex="1" connectable="0" parent="gfm0-RPMx8z-YOoSIL-z-28">
          <mxGeometry x="0.0443" y="1" relative="1" as="geometry">
            <mxPoint as="offset" />
          </mxGeometry>
        </mxCell>
        <mxCell id="gfm0-RPMx8z-YOoSIL-z-25" value="schedule_delayed_work&lt;div&gt;(delayed_work)&lt;/div&gt;" style="text;whiteSpace=wrap;html=1;align=center;" vertex="1" parent="1">
          <mxGeometry x="170" y="250" width="130" height="40" as="geometry" />
        </mxCell>
        <mxCell id="gfm0-RPMx8z-YOoSIL-z-30" value="drm_sysfs_hotplug_event" style="text;whiteSpace=wrap;html=1;" vertex="1" parent="1">
          <mxGeometry x="-120" y="345" width="150" height="25" as="geometry" />
        </mxCell>
        <mxCell id="gfm0-RPMx8z-YOoSIL-z-31" style="edgeStyle=orthogonalEdgeStyle;rounded=0;orthogonalLoop=1;jettySize=auto;html=1;exitX=0.5;exitY=1;exitDx=0;exitDy=0;entryX=0.451;entryY=-0.025;entryDx=0;entryDy=0;entryPerimeter=0;" edge="1" parent="1" source="gfm0-RPMx8z-YOoSIL-z-24" target="gfm0-RPMx8z-YOoSIL-z-30">
          <mxGeometry relative="1" as="geometry" />
        </mxCell>
        <mxCell id="gfm0-RPMx8z-YOoSIL-z-32" value="drm_client_dev_hotplug" style="text;whiteSpace=wrap;html=1;" vertex="1" parent="1">
          <mxGeometry x="60" y="345" width="140" height="30" as="geometry" />
        </mxCell>
        <mxCell id="gfm0-RPMx8z-YOoSIL-z-34" value="&lt;font color=&quot;#999999&quot; style=&quot;font-size: 10px;&quot;&gt;fbdev相关&lt;/font&gt;" style="text;html=1;align=center;verticalAlign=middle;whiteSpace=wrap;rounded=0;" vertex="1" parent="1">
          <mxGeometry x="140" y="320" width="60" height="30" as="geometry" />
        </mxCell>
        <mxCell id="gfm0-RPMx8z-YOoSIL-z-35" value="&lt;font color=&quot;#999999&quot; style=&quot;font-size: 10px;&quot;&gt;send uevent&lt;/font&gt;" style="text;html=1;align=center;verticalAlign=middle;whiteSpace=wrap;rounded=0;" vertex="1" parent="1">
          <mxGeometry x="-130" y="290" width="70" height="30" as="geometry" />
        </mxCell>
        <mxCell id="gfm0-RPMx8z-YOoSIL-z-44" style="edgeStyle=orthogonalEdgeStyle;rounded=0;orthogonalLoop=1;jettySize=auto;html=1;entryX=0.5;entryY=0;entryDx=0;entryDy=0;" edge="1" parent="1" source="gfm0-RPMx8z-YOoSIL-z-39" target="gfm0-RPMx8z-YOoSIL-z-43">
          <mxGeometry relative="1" as="geometry" />
        </mxCell>
        <mxCell id="gfm0-RPMx8z-YOoSIL-z-39" value="drm_helper_hpd_irq_event" style="text;whiteSpace=wrap;html=1;" vertex="1" parent="1">
          <mxGeometry x="421.25" y="450" width="150" height="30" as="geometry" />
        </mxCell>
        <mxCell id="gfm0-RPMx8z-YOoSIL-z-41" value="&lt;font color=&quot;#9933ff&quot;&gt;不支持硬件hotplug interrupt，采用polling的方式检测connector status:&lt;/font&gt;" style="text;html=1;align=center;verticalAlign=middle;whiteSpace=wrap;rounded=0;" vertex="1" parent="1">
          <mxGeometry x="160" y="40" width="220" height="30" as="geometry" />
        </mxCell>
        <mxCell id="gfm0-RPMx8z-YOoSIL-z-42" value="&lt;font color=&quot;#9933ff&quot;&gt;支持硬件hotplug interrupt，在interrupt handler中调用:&lt;/font&gt;" style="text;html=1;align=center;verticalAlign=middle;whiteSpace=wrap;rounded=0;" vertex="1" parent="1">
          <mxGeometry x="191.25" y="450" width="220" height="30" as="geometry" />
        </mxCell>
        <mxCell id="gfm0-RPMx8z-YOoSIL-z-43" value="drm_kms_helper_hotplug_event" style="text;whiteSpace=wrap;html=1;" vertex="1" parent="1">
          <mxGeometry x="406.25" y="500" width="180" height="30" as="geometry" />
        </mxCell>
      </root>
    </mxGraphModel>
  </diagram>
</mxfile>
